<svg xmlns="http://www.w3.org/2000/svg" xmlns:svg="http://www.w3.org/2000/svg" id="svg4893" width="43.438" height="42.366" version="1.1" viewBox="0 0 11.493 11.209"><metadata id="metadata4890"/><g id="layer1" transform="translate(-77.408186,-147.76432)"><path style="fill:#1b1817;fill-opacity:1;fill-rule:evenodd;stroke:none;stroke-width:.352778" id="path24" d="m 83.154236,147.76432 c -3.17324,0 -5.74605,2.5728 -5.74605,5.74674 0,2.53895 1.64642,4.69265 3.92995,5.45289 0.28751,0.0526 0.39229,-0.12488 0.39229,-0.27728 0,-0.13618 -0.005,-0.49777 -0.008,-0.9772 -1.59844,0.34714 -1.9357,-0.77046 -1.9357,-0.77046 -0.2614,-0.66358 -0.63817,-0.84032 -0.63817,-0.84032 -0.52176,-0.35666 0.0395,-0.3496 0.0395,-0.3496 0.57679,0.0409 0.88018,0.59231 0.88018,0.59231 0.51259,0.87806 1.34514,0.62442 1.67252,0.47766 0.0522,-0.37147 0.20038,-0.62477 0.36477,-0.76835 -1.27599,-0.14499 -2.61761,-0.63817 -2.61761,-2.84021 0,-0.62724 0.22402,-1.14018 0.59161,-1.54199 -0.0593,-0.14535 -0.25647,-0.72955 0.0561,-1.52083 0,0 0.4826,-0.15451 1.58045,0.58914 0.45825,-0.12735 0.95003,-0.19121 1.43862,-0.19332 0.4879,0.002 0.97967,0.066 1.43863,0.19332 1.09714,-0.74365 1.57868,-0.58914 1.57868,-0.58914 0.31362,0.79128 0.11642,1.37548 0.0572,1.52083 0.3683,0.40181 0.5909,0.91475 0.5909,1.54199 0,2.20768 -1.34373,2.69346 -2.62396,2.83563 0.20638,0.17744 0.39018,0.5281 0.39018,1.06433 0,0.76799 -0.007,1.38782 -0.007,1.57621 0,0.15381 0.10336,0.33267 0.39511,0.27657 2.28177,-0.76164 3.92677,-2.91394 3.92677,-5.45218 0,-3.17394 -2.57316,-5.74674 -5.7471,-5.74674"/></g></svg>